<?xml version="1.0" encoding="UTF-8" standalone="no"?>
<!-- Created with Inkscape (http://www.inkscape.org/) -->

<svg
   width="187mm"
   height="170mm"
   viewBox="0 0 187 170"
   version="1.1"
   id="svg1"
   xml:space="preserve"
   inkscape:version="1.4.2 (f4327f4, 2025-05-13)"
   sodipodi:docname="logonome.svg"
   xmlns:inkscape="http://www.inkscape.org/namespaces/inkscape"
   xmlns:sodipodi="http://sodipodi.sourceforge.net/DTD/sodipodi-0.dtd"
   xmlns="http://www.w3.org/2000/svg"
   xmlns:svg="http://www.w3.org/2000/svg"><sodipodi:namedview
     id="namedview1"
     pagecolor="#ffffff"
     bordercolor="#000000"
     borderopacity="0.25"
     inkscape:showpageshadow="2"
     inkscape:pageopacity="0.0"
     inkscape:pagecheckerboard="0"
     inkscape:deskcolor="#d1d1d1"
     inkscape:document-units="mm"
     inkscape:zoom="0.68862935"
     inkscape:cx="397.16576"
     inkscape:cy="561.25984"
     inkscape:window-width="1920"
     inkscape:window-height="991"
     inkscape:window-x="-9"
     inkscape:window-y="-9"
     inkscape:window-maximized="1"
     inkscape:current-layer="layer1" /><defs
     id="defs1" /><g
     inkscape:label="Camada 1"
     inkscape:groupmode="layer"
     id="layer1"><path
       style="fill:#d4aa00"
       d="m 72.870685,167.72778 c -1.4192,-0.31861 -1.72787,-0.72156 -1.62696,-2.12396 l 0.0823,-1.14403 0.60585,0.97433 c 1.45516,2.34016 5.87644,2.31022 5.87644,-0.0398 0,-0.98089 -1.1165,-1.94834 -3.20959,-2.78109 -2.09501,-0.83351 -2.87326,-1.58717 -3.05258,-2.95608 -0.18096,-1.38149 0.73301,-2.73896 2.1708,-3.22418 0.92907,-0.31354 2.73036,-0.30182 4.41444,0.0287 0.61351,0.12042 0.63634,0.1601 0.83386,1.44966 0.19161,1.25095 -0.0906,1.46669 -0.62136,0.47499 -0.94872,-1.7727 -4.51103,-1.92531 -4.94112,-0.21168 -0.29523,1.17628 0.27124,1.8012 2.45787,2.71149 1.13456,0.47232 2.32254,1.02893 2.63996,1.23691 1.37899,0.90355 1.47815,3.28682 0.19259,4.62866 -1.15692,1.20756 -3.23762,1.55636 -5.82251,0.97606 z m -55.02656,-0.65824 c 0.69635,-0.69635 0.69754,-0.70483 0.69754,-4.9914 0,-3.94336 -0.0448,-4.35077 -0.54837,-4.99101 l -0.54837,-0.69714 h 3.83843 c 4.14809,0 4.87065,0.15105 5.8674,1.22657 0.50855,0.54873 0.65132,0.98813 0.65132,2.00446 0,1.59829 -0.26217,2.11706 -1.43679,2.84301 -1.11765,0.69074 -2.77697,0.90952 -4.45019,0.58673 l -1.25677,-0.24245 v 1.76804 c 0,1.40231 0.10946,1.88552 0.52917,2.33602 0.29104,0.3124 0.52917,0.63251 0.52917,0.71135 0,0.0789 -1.02827,0.14336 -2.28504,0.14336 h -2.28504 z m 6.09371,-4.84815 c 1.19335,-0.45371 1.74758,-1.23553 1.74758,-2.46523 0,-0.62247 -0.17951,-1.38804 -0.39891,-1.70127 -0.43047,-0.61459 -2.68381,-1.25911 -3.83443,-1.09677 -0.64734,0.0913 -0.66307,0.14795 -0.73693,2.65182 -0.067,2.27059 -0.0223,2.57231 0.39688,2.68129 0.85044,0.22109 2.14475,0.1891 2.82581,-0.0698 z m 3.59966,5.31555 c 0,-0.10171 0.34236,-0.38717 0.7608,-0.63435 0.61545,-0.36356 1.14686,-1.34746 2.78171,-5.15027 2.46119,-5.72501 2.32413,-5.47992 3.06448,-5.47992 0.52835,0 0.8978,0.63554 2.90102,4.99045 1.31389,2.85633 2.61924,5.31412 3.05246,5.74733 l 0.75689,0.7569 h -2.16076 c -1.26412,0 -2.16077,-0.1098 -2.16077,-0.26459 0,-0.14552 0.11907,-0.26458 0.26459,-0.26458 0.42176,0 0.30923,-0.88031 -0.29986,-2.34597 l -0.56444,-1.3582 h -2.3134 -2.31339 l -0.56175,1.30582 c -0.68719,1.59743 -0.68698,1.56948 -0.0175,2.28212 l 0.54426,0.57934 -1.86717,0.0104 c -1.02695,0.006 -1.86718,-0.0728 -1.86718,-0.17451 z m 7.8934,-4.9963 c -0.0485,-0.10964 -0.44538,-1.06067 -0.88194,-2.1134 -0.43656,-1.05273 -0.85804,-1.91553 -0.93662,-1.91732 -0.13482,-0.003 -1.84151,3.78613 -1.84151,4.08853 0,0.0778 0.84336,0.14154 1.87414,0.14154 1.03077,0 1.83444,-0.0897 1.78593,-0.19935 z m 9.2584,4.61407 c 0.54589,-0.58107 0.57528,-0.85146 0.57528,-5.29166 v -4.67931 h -1.32215 c -1.14751,0 -1.46206,0.1264 -2.38125,0.95683 -1.14831,1.03744 -1.26239,0.91953 -0.89373,-0.92375 l 0.16536,-0.82683 h 5.65547 5.65547 v 1.35371 1.3537 l -1.0591,-0.95683 c -0.91919,-0.83043 -1.23374,-0.95683 -2.38125,-0.95683 h -1.32215 v 4.47762 c 0,4.43111 0.007,4.48607 0.68498,5.29167 l 0.68498,0.81405 h -2.3186 -2.3186 z m 9.8357,0.45566 c 0,-0.0862 0.23812,-0.45943 0.52917,-0.82943 0.47866,-0.60852 0.52916,-1.07336 0.52916,-4.87038 0,-3.84487 -0.0445,-4.24212 -0.52916,-4.72682 -0.29105,-0.29104 -0.52917,-0.58869 -0.52917,-0.66145 0,-0.0728 1.03431,-0.1323 2.29846,-0.1323 h 2.29846 l -0.71096,0.74209 c -0.6152,0.64212 -0.71096,0.96287 -0.71096,2.38125 v 1.63916 h 3.70417 3.70416 v -1.71979 c 0,-1.36701 -0.10854,-1.82834 -0.52916,-2.24896 -0.29105,-0.29104 -0.52917,-0.58869 -0.52917,-0.66145 0,-0.0728 1.02827,-0.1323 2.28504,-0.1323 h 2.28504 l -0.69754,0.69754 c -0.69617,0.69617 -0.69754,0.70598 -0.69754,4.9772 0,3.91393 0.0452,4.32819 0.52917,4.84764 0.29104,0.3124 0.52916,0.63251 0.52916,0.71135 0,0.0789 -0.9525,0.14336 -2.11666,0.14336 -1.16417,0 -2.11667,-0.0595 -2.11667,-0.13229 0,-0.0728 0.23812,-0.37042 0.52917,-0.66146 0.44616,-0.44616 0.52916,-0.88195 0.52916,-2.77813 v -2.24896 h -3.70416 -3.70417 v 2.24896 c 0,1.89618 0.083,2.33197 0.52917,2.77813 0.29104,0.29104 0.52916,0.5887 0.52916,0.66146 0,0.0728 -0.9525,0.13229 -2.11666,0.13229 -1.16417,0 -2.11667,-0.0705 -2.11667,-0.15671 z m 39.07743,-0.5545 c -0.20682,-0.4092 -1.24469,-2.74949 -2.30638,-5.20064 -1.45358,-3.35595 -2.08329,-4.52634 -2.54965,-4.73883 -1.14444,-0.52144 -0.63426,-0.72641 1.80805,-0.72641 h 2.42737 l -0.57528,0.61237 c -0.31641,0.3368 -0.57529,0.73482 -0.57529,0.88448 0,0.5882 3.0911,7.09574 3.32392,6.99769 0.39347,-0.16572 2.4835,-5.11232 2.49054,-5.89455 0.004,-0.38901 -0.29128,-1.06105 -0.65509,-1.4934 -0.3638,-0.43235 -0.66145,-0.85821 -0.66145,-0.94634 0,-0.0881 1.02067,-0.16025 2.26816,-0.16025 h 2.268155 l -0.54837,0.69714 c -0.3016,0.38343 -0.550645,0.88945 -0.553425,1.12448 -0.006,0.52181 2.664995,6.91031 2.888375,6.90795 0.17266,-0.002 2.25336,-5.14996 2.67348,-6.61484 0.2197,-0.76604 0.17372,-0.98612 -0.31462,-1.50594 l -0.57192,-0.60879 h 2.08419 2.08419 l -0.96813,0.99219 c -0.89227,0.91445 -3.12919,5.4025 -4.55993,9.14883 -0.41626,1.08998 -0.57295,1.25234 -1.14215,1.18353 -0.56047,-0.0678 -0.80626,-0.43793 -1.6341,-2.461 -0.535915,-1.30969 -1.220675,-2.91703 -1.521685,-3.57188 l -0.54729,-1.19062 -0.4884,1.19062 c -1.77426,4.32527 -2.63677,5.95579 -3.19272,6.03567 -0.40972,0.0589 -0.68238,-0.13087 -0.95055,-0.66146 z m 17.298835,0.0292 c 0.61421,-0.65305 0.64499,-0.85908 0.72522,-4.85353 l 0.0838,-4.17153 -0.70262,-0.83501 -0.70262,-0.83502 h 2.45427 2.45427 l -0.75835,0.79155 -0.75835,0.79155 0.0512,4.28869 c 0.0477,3.99263 0.0907,4.33068 0.62268,4.89699 l 0.57147,0.60831 h -2.3412 -2.3412 z m 10.29873,0.54971 c 0,-0.0728 0.23812,-0.37042 0.52916,-0.66146 0.48885,-0.48885 0.52917,-0.88195 0.52917,-5.15938 v -4.63021 h -1.36388 c -1.24938,0 -1.4493,0.0898 -2.38125,1.06948 l -1.01737,1.06947 v -1.46635 -1.46635 h 5.82083 5.82084 v 1.38135 1.38135 l -0.95622,-0.98447 c -0.87031,-0.89603 -1.08424,-0.98448 -2.38125,-0.98448 h -1.42503 v 4.59453 c 0,4.24753 0.0414,4.64718 0.54837,5.29167 l 0.54837,0.69714 h -2.13587 c -1.17473,0 -2.13587,-0.0595 -2.13587,-0.13229 z m 10.58333,0 c 0,-0.0728 0.23813,-0.37042 0.52917,-0.66146 0.4864,-0.48641 0.52916,-0.88195 0.52916,-4.89479 0,-4.01285 -0.0428,-4.40839 -0.52916,-4.8948 -0.29104,-0.29104 -0.52917,-0.58869 -0.52917,-0.66145 0,-0.0728 1.03431,-0.1323 2.29846,-0.1323 h 2.29846 l -0.71096,0.74209 c -0.6152,0.64212 -0.71096,0.96287 -0.71096,2.38125 v 1.63916 h 3.43958 3.43959 v -1.72238 c 0,-1.39496 -0.10059,-1.80851 -0.52917,-2.17546 -0.29104,-0.2492 -0.52917,-0.54569 -0.52917,-0.65887 0,-0.11318 1.03431,-0.20579 2.29846,-0.20579 h 2.29846 l -0.71096,0.74209 -0.71096,0.74208 v 4.28759 c 0,3.96017 0.0404,4.32219 0.52917,4.74068 0.29104,0.24919 0.52917,0.54569 0.52917,0.65887 0,0.11318 -0.97326,0.20578 -2.16279,0.20578 h -2.16279 l 0.57529,-0.61237 c 0.4995,-0.53169 0.57529,-0.9151 0.57529,-2.91041 v -2.29806 h -3.43959 -3.43958 v 2.21328 c 0,1.83848 0.0929,2.33133 0.54837,2.91042 l 0.54837,0.69714 h -2.13587 c -1.17473,0 -2.13587,-0.0595 -2.13587,-0.13229 z m 17.1518,-0.48008 c 0.54373,-0.57877 0.57528,-0.85722 0.57528,-5.07617 0,-4.21896 -0.0316,-4.49741 -0.57528,-5.07618 l -0.57529,-0.61237 2.49352,0.001 2.49351,10e-4 -0.79375,0.63762 -0.79375,0.63762 0.0379,4.40227 c 0.0313,3.63475 0.11203,4.48417 0.46302,4.87201 0.23381,0.25835 0.4251,0.54965 0.4251,0.64733 0,0.0977 -0.97325,0.17761 -2.16278,0.17761 h -2.16279 z m 6.13153,0.4921 c 0,-0.0661 0.29766,-0.41792 0.66146,-0.78172 0.65198,-0.65198 0.66146,-0.72386 0.66146,-5.01704 v -4.35559 l -0.7276,-0.54285 -0.72761,-0.54285 1.71979,-3.3e-4 1.7198,-3.3e-4 3.69252,3.9607 c 2.03088,2.17838 3.78705,3.96069 3.9026,3.96069 0.11555,0 0.21008,-1.44051 0.21008,-3.20113 v -3.20114 l -0.82173,-0.76761 -0.82173,-0.76762 h 2.06186 2.06186 l -0.71096,0.74209 -0.71096,0.74208 v 4.94646 c 0,4.53473 -0.0385,4.94641 -0.46302,4.94592 -0.25519,-2.9e-4 -2.36327,-2.00646 -4.69636,-4.4693 -2.32833,-2.45783 -4.38216,-4.53744 -4.56406,-4.62137 -0.25641,-0.11831 -0.33073,0.71102 -0.33073,3.69047 v 3.84307 l 0.85272,0.77883 0.85271,0.77884 h -1.91105 c -1.05107,0 -1.91105,-0.0541 -1.91105,-0.12027 z M 80.282165,141.37084 c -0.62316,-0.3981 -0.43402,-1.05097 1.01446,-3.50168 2.69134,-4.55354 4.63079,-9.97147 5.09021,-14.21973 l 0.17865,-1.65202 -0.65839,0.25032 c -2.05234,0.7803 -6.63118,1.39275 -11.40606,1.52565 -4.24107,0.11804 -5.62788,0.0526 -8.86962,-0.41867 -9.00642,-1.30927 -16.82238,-4.31948 -24.46175,-9.42111 -9.87627,-6.59546 -16.79476,-14.426149 -21.98175,-24.880055 -1.08306,-2.182812 -1.96919,-4.17861 -1.96918,-4.435107 10e-6,-0.583525 1.95121,-1.471565 5.94079,-2.703812 5.70758,-1.762876 10.07583,-2.269473 16.66915,-1.933168 2.03073,0.103581 3.73571,0.144852 3.78885,0.09171 0.0531,-0.05314 -0.15306,-0.904959 -0.45822,-1.892935 -0.30515,-0.987975 -0.87112,-3.529559 -1.2577,-5.647964 -0.64177,-3.516742 -0.70134,-4.415282 -0.68514,-10.333936 0.0119,-4.331401 0.1377,-7.096831 0.37928,-8.334374 l 0.36154,-1.852084 3.14985,-0.0749 c 5.82205,-0.138436 12.93057,1.602773 19.35799,4.741676 1.59069,0.776831 2.96975,1.449603 3.06458,1.495049 0.0948,0.04545 0.44144,-0.727061 0.77025,-1.716682 3.36013,-10.113057 10.20989,-19.251603 19.31895,-25.774204 1.10295,-0.789776 2.5629,-1.731171 3.24433,-2.09199 l 1.23896,-0.656034 1.65046,0.856873 c 5.31619,2.760015 11.859555,9.16991 16.411205,16.07646 1.80782,2.743138 4.57814,8.316341 5.63238,11.330964 0.55771,1.5948 0.82096,2.040752 1.14569,1.940869 0.23188,-0.07132 1.85035,-0.774436 3.5966,-1.562471 7.95478,-3.589773 14.60414,-5.052162 21.4872,-4.72566 0.79531,0.03773 1.03636,1.060125 1.42349,6.037543 0.50233,6.458778 -0.26742,14.682682 -1.89189,20.212487 -0.28247,0.961574 -0.51359,1.799577 -0.51359,1.862227 0,0.06265 2.26472,0.0652 5.03272,0.0057 5.51818,-0.11869 8.56561,0.159209 12.68562,1.156817 2.7604,0.668396 7.53527,2.341901 8.32078,2.916282 0.62488,0.45692 0.36445,1.263838 -1.90688,5.908283 -1.91763,3.921188 -4.69901,8.251837 -7.29399,11.356856 -2.02699,2.4254 -6.71844,7.00536 -9.29763,9.07669 -6.72337,5.3995 -15.79872,10.05679 -23.39333,12.005 -2.50793,0.64334 -8.34984,1.45395 -10.48845,1.45535 l -1.8672,10e-4 -1.21586,-1.65365 c -1.10907,-1.50842 -2.96181,-3.40007 -5.984,-6.1097 -0.62355,-0.55906 -1.09734,-1.18604 -1.05286,-1.39328 0.0463,-0.21586 1.32399,-0.80747 2.99129,-1.3851 5.15938,-1.78745 9.57232,-4.22239 13.75833,-7.59147 4.3148,-3.47274 8.22001,-7.808759 11.32373,-12.572963 1.63625,-2.511626 5.39136,-9.94923 5.14671,-10.19388 -0.23059,-0.230587 -5.21408,1.10832 -7.48933,2.012145 -4.64898,1.846772 -9.04286,4.443474 -12.27959,7.257002 -1.79507,1.560368 -1.96837,1.81732 -3.66706,5.437147 -2.6359,5.616989 -7.54608,11.353519 -11.73737,13.712679 -2.783995,1.56703 -3.029445,1.61181 -3.180855,0.58023 -0.11085,-0.75529 -0.0217,-0.88326 0.958905,-1.37731 1.94552,-0.98013 4.22042,-2.75753 6.252,-4.88475 5.60915,-5.873229 8.93387,-13.988896 10.06439,-24.567304 0.53415,-4.998012 -0.0354,-14.642788 -1.1057,-18.722636 -0.24128,-0.919745 -0.30565,-0.97229 -0.84537,-0.690044 -2.83855,1.484413 -11.32114,8.950073 -16.588635,14.599929 -3.79751,4.073169 -3.81568,4.367092 -0.4275,6.917105 2.270385,1.708751 3.503955,3.009013 4.561345,4.807988 0.64013,1.089073 0.7578,1.577901 0.75629,3.141824 -0.003,2.698927 -0.77717,3.938015 -5.336895,8.537469 -6.64154,6.699429 -6.69385,7.912689 -0.60157,13.952109 3.566455,3.53551 5.247735,5.65598 6.817935,8.59896 2.80303,5.25363 3.86332,12.42497 2.66392,18.01759 l -0.27816,1.29699 -12.876505,-0.004 c -7.08208,-0.002 -13.01344,-0.0915 -13.1808,-0.19844 z m 24.549705,-2.3772 c 0.40004,-1.01233 0.39817,-6.74605 -0.003,-8.6651 -1.2604,-6.0317 -3.71455,-10.17357 -9.171155,-15.47813 -3.23724,-3.14703 -4.19745,-4.48909 -4.64604,-6.49362 -0.6495,-2.90225 0.55952,-5.21072 4.95625,-9.463379 4.919645,-4.758446 6.055175,-6.938782 4.931215,-9.468437 -0.70034,-1.576242 -1.682665,-2.686575 -4.020335,-4.54424 -2.69137,-2.138728 -3.46022,-3.151486 -3.46022,-4.557898 0,-1.465974 0.61327,-2.345067 4.5989,-6.592318 4.513835,-4.810143 10.195535,-9.78434 14.705515,-12.874365 0.9403,-0.644246 1.82278,-1.249831 1.96108,-1.345744 0.60581,-0.420157 -2.82204,-8.285745 -5.47609,-12.565464 C 104.99551,40.15194 98.938635,34.021073 93.055955,30.595443 l -0.88328,-0.514355 -1.98414,1.236661 c -6.99823,4.361801 -13.4942,11.57184 -17.45274,19.371215 -1.35935,2.678271 -3.60999,8.493968 -3.36615,8.698189 0.0574,0.04805 1.18321,0.807272 2.50186,1.687165 6.1341,4.093081 14.73296,12.196297 16.61845,15.66055 0.37758,0.693746 0.86465,2.108187 1.08237,3.143204 0.70201,3.33725 1.28099,4.216001 5.24448,7.959854 2.20074,2.078783 2.49706,3.638407 1.11068,5.845827 -0.69765,1.110813 -3.53289,3.819848 -6.23374,5.956258 -1.07995,0.854249 -2.87304,2.455269 -3.98465,3.557809 -2.71841,2.69624 -3.12459,4.12835 -2.10241,7.41262 0.59841,1.92269 0.39652,2.15419 -1.37018,1.57112 -4.71542,-1.55623 -9.90667,-7.89871 -13.15363,-16.070639 -0.79366,-1.99749 -1.04987,-2.353255 -2.74594,-3.813019 -3.46779,-2.984639 -8.25356,-5.754445 -13.28267,-7.687465 -2.36284,-0.908197 -6.12214,-1.947653 -6.31406,-1.745855 -0.1871,0.196734 3.72571,8.04831 5.128,10.290005 2.13573,3.414172 5.31763,7.351853 8.16481,10.104163 6.27735,6.06818 10.86304,8.54138 22.47751,12.12278 5.37966,1.65885 6.07734,2.54954 5.8014,7.40638 -0.24988,4.3982 -1.56289,8.88658 -3.9861,13.62604 -0.74402,1.45521 -1.39032,2.72514 -1.43623,2.82205 -0.17539,0.37029 1.17416,0.42475 11.2633,0.45455 l 10.391445,0.0307 z M 90.862085,65.213129 c -1.02689,-0.506466 -1.53253,-1.635838 -1.3221,-2.953015 0.33758,-2.11316 2.90542,-2.927906 4.42828,-1.405045 0.76744,0.767437 0.88398,1.128242 0.77575,2.401603 -0.0883,1.038274 -0.50116,1.601815 -1.47036,2.006774 -1.11927,0.467658 -1.37203,0.462384 -2.41157,-0.05032 z m 2.29208,-1.427291 c 0.64382,-0.643823 0.67319,-1.254389 0.0913,-1.897395 -1.26946,-1.402733 -3.3417,0.263684 -2.17397,1.748217 0.6406,0.814393 1.36554,0.866319 2.08268,0.149178 z M 91.123605,53.34561 c -2.17411,-0.945694 -2.51778,-4.008936 -0.65046,-5.797936 2.09127,-2.003567 5.58756,-0.395465 5.59044,2.5713 10e-4,1.379637 -0.69683,2.46072 -1.99499,3.089152 -1.26273,0.611275 -1.79828,0.636277 -2.94499,0.137484 z m 3.09036,-1.924866 c 1.31446,-1.671056 -0.46613,-3.86265 -2.50316,-3.080967 -0.47957,0.184028 -1.20248,1.436586 -1.20248,2.083491 0,0.232122 0.29225,0.714285 0.64943,1.071472 0.92229,0.92229 2.29875,0.888963 3.05621,-0.074 z m -12.03057,69.826136 c 3.38666,-0.6959 4.0916,-0.96834 4.0916,-1.5813 0,-1.04138 -1.20184,-1.66534 -5.73004,-2.97485 -9.68077,-2.79959 -15.26229,-5.86476 -21.51767,-11.81671 -3.19874,-3.04357 -5.77004,-6.139199 -8.08617,-9.735058 -1.89409,-2.940643 -4.26698,-7.478762 -5.44635,-10.41608 -0.6723,-1.674415 -1.05048,-2.278536 -1.55175,-2.478814 -0.79015,-0.315693 -9.65071,-0.416133 -12.35452,-0.140047 -3.83086,0.39117 -11.61536,2.522322 -11.89733,3.257117 -0.0688,0.179165 0.58439,1.738095 1.45142,3.464289 2.75199,5.479 6.26213,10.366134 10.677,14.865473 5.16687,5.26573 10.58987,9.24575 16.79808,12.32837 5.6051,2.78314 9.71637,4.15587 15.45882,5.16158 4.38069,0.76722 4.38385,0.76744 10.15997,0.68613 4.08228,-0.0575 5.89852,-0.19918 7.94694,-0.6201 z m 39.810345,-0.0483 c 11.65345,-2.47063 23.7623,-9.46193 32.10361,-18.5357 2.35449,-2.56124 5.82975,-7.196955 7.54221,-10.060708 1.61597,-2.702399 3.55622,-6.763324 3.42274,-7.163765 -0.26532,-0.795955 -8.04192,-2.913193 -12.43261,-3.384874 -3.36755,-0.361767 -7.8862,-0.350842 -10.4144,0.02518 l -2.02505,0.30119 -0.55603,1.352456 c -1.02963,2.504445 -3.56067,7.487736 -4.89917,9.645839 -6.11664,9.862052 -15.99572,18.072782 -25.54407,21.230282 l -1.82257,0.60269 0.89652,0.77672 c 2.01299,1.74398 3.54441,3.30491 4.56625,4.65424 l 1.07994,1.42607 2.78455,-0.16836 c 1.53149,-0.0926 3.91563,-0.40817 5.29808,-0.70126 z M 81.434725,107.9994 c 0.0509,-3.30404 0.91427,-4.56249 6.15249,-8.967949 6.09345,-5.12473 7.59663,-6.796902 7.27216,-8.089693 -0.087,-0.346443 -1.20632,-1.641413 -2.48749,-2.877712 -2.84872,-2.748938 -3.55337,-3.912649 -4.37268,-7.221384 -0.44068,-1.779688 -0.92195,-2.993206 -1.55816,-3.928946 -1.28077,-1.883746 -6.07168,-6.735512 -9.63484,-9.757228 -3.0237,-2.564224 -7.66234,-5.906877 -7.88629,-5.682932 -0.39317,0.393173 -1.18404,6.07852 -1.3935,10.01752 -0.42395,7.97268 0.35007,15.202218 2.24855,21.002052 1.7556,5.363303 4.74227,10.843532 7.51982,13.798112 1.38511,1.47338 3.68007,3.53209 3.93744,3.53209 0.0959,0 0.18704,-0.82077 0.2025,-1.82393 z M 118.42706,89.589906 c 4.45927,-3.632125 10.35067,-6.458708 17.0076,-8.159922 l 3.36012,-0.858698 0.59593,-1.830259 c 0.91041,-2.796099 1.8498,-8.044451 2.21491,-12.374616 0.26286,-3.117466 0.26234,-4.766099 -0.003,-8.202083 -0.18237,-2.3652 -0.41304,-4.384166 -0.5126,-4.48659 -0.25599,-0.263335 -5.25824,0.257565 -8.27345,0.861539 -4.94412,0.990351 -10.3905,2.900942 -14.13054,4.956994 -1.5423,0.847862 -1.54712,0.875594 -0.83839,4.818734 1.42934,7.952259 1.11145,19.197081 -0.71245,25.201561 -0.20996,0.691224 -0.33219,1.256771 -0.27161,1.256771 0.0606,0 0.76395,-0.532544 1.56306,-1.183431 z m -51.334715,0.191243 c -0.10409,-0.254661 -0.43868,-1.772708 -0.74353,-3.373437 -0.48516,-2.547561 -0.55542,-3.916515 -0.56355,-10.980208 -0.008,-7.290064 0.0478,-8.363787 0.5817,-11.112499 0.32505,-1.67349 0.66121,-3.29623 0.74703,-3.606091 0.13803,-0.498435 -0.18972,-0.733637 -2.84305,-2.040254 -3.62502,-1.785114 -8.31273,-3.415752 -11.95071,-4.157097 -3.16069,-0.644084 -8.47883,-0.995252 -8.73735,-0.576945 -0.60758,0.983082 -0.7451,11.448132 -0.20594,15.672053 0.327,2.561833 1.33504,7.40079 2.02737,9.732103 l 0.38385,1.292562 2.1856,0.485839 c 5.6622,1.258652 12.61284,4.478052 17.38079,8.050436 1.55873,1.167883 2.0328,1.335255 1.73779,0.613538 z M 92.282885,21.71709 c -0.0836,-0.218281 -0.27811,-1.023629 -0.43215,-1.789663 -0.62747,-3.120235 -2.26245,-5.366446 -4.81989,-6.621793 -0.92504,-0.454065 -1.92002,-0.900462 -2.21106,-0.991992 -0.41448,-0.130351 -0.16978,-0.311383 1.12904,-0.835276 3.10454,-1.252244 5.49785,-4.2140057 6.11445,-7.5667248 0.12836,-0.6979457 0.28815,-1.323757 0.35508,-1.3906919 0.0669,-0.066935 0.27152,0.5636427 0.45463,1.4012837 0.49896,2.2825081 1.16455,3.6065643 2.57757,5.1275243 1.28579,1.3840217 3.91493,2.8566457 5.172265,2.8970827 0.36096,0.01161 0.0197,0.221167 -0.854075,0.524518 -1.99271,0.691785 -2.84919,1.196536 -4.18902,2.468741 -1.43958,1.366914 -2.04493,2.533631 -2.65918,5.125168 -0.26707,1.126784 -0.55402,1.870105 -0.63766,1.651823 z m 1.25806,-6.982012 c 0.41495,-0.565888 1.33605,-1.39042 2.04687,-1.832293 l 1.29241,-0.803406 -1.19022,-0.740813 c -0.65462,-0.407446 -1.66681,-1.343742 -2.2493,-2.0806567 l -1.05909,-1.339845 -0.67519,1.02028 c -0.59614,0.900825 -1.32741,1.5509127 -3.16671,2.8151547 -0.49062,0.337226 -0.47648,0.37199 0.3187,0.783194 0.97431,0.503834 3.502,2.961569 3.502,3.40508 0,0.348715 0.10634,0.238215 1.18053,-1.226695 z"
       id="path1" /></g></svg>
