<?xml version="1.0" encoding="UTF-8" standalone="no"?>
<!-- Created with Inkscape (http://www.inkscape.org/) -->

<svg
   width="187mm"
   height="170mm"
   viewBox="0 0 187 170"
   version="1.1"
   id="svg1"
   xml:space="preserve"
   inkscape:version="1.4.2 (f4327f4, 2025-05-13)"
   sodipodi:docname="logo.svg"
   xmlns:inkscape="http://www.inkscape.org/namespaces/inkscape"
   xmlns:sodipodi="http://sodipodi.sourceforge.net/DTD/sodipodi-0.dtd"
   xmlns="http://www.w3.org/2000/svg"
   xmlns:svg="http://www.w3.org/2000/svg"><sodipodi:namedview
     id="namedview1"
     pagecolor="#ffffff"
     bordercolor="#000000"
     borderopacity="0.25"
     inkscape:showpageshadow="2"
     inkscape:pageopacity="0.0"
     inkscape:pagecheckerboard="0"
     inkscape:deskcolor="#d1d1d1"
     inkscape:document-units="mm"
     inkscape:zoom="0.68862935"
     inkscape:cx="397.16576"
     inkscape:cy="561.25984"
     inkscape:window-width="1920"
     inkscape:window-height="991"
     inkscape:window-x="-9"
     inkscape:window-y="-9"
     inkscape:window-maximized="1"
     inkscape:current-layer="layer1" /><defs
     id="defs1" /><g
     inkscape:label="Camada 1"
     inkscape:groupmode="layer"
     id="layer1"><path
       style="fill:#d4aa00"
       d="m 79.345192,166.85712 c 0,-0.0639 0.62508,-0.9876 1.38907,-2.05262 3.39704,-4.73561 5.59506,-10.87475 6.16243,-17.21189 0.10098,-1.12779 0.0803,-2.04768 -0.0459,-2.04421 -0.12623,0.003 -0.70577,0.11942 -1.28785,0.25767 -4.19916,0.9973 -6.19093,1.18143 -12.83229,1.18629 -7.21478,0.005 -9.65297,-0.24363 -15.875,-1.62063 -10.24761,-2.26791 -21.03122,-7.50425 -29.63333,-14.38945 -9.32298,-7.46219 -18.61418,-19.42954 -23.12306,-29.78324 l -1.14119,-2.62049 0.95348,-0.50542 c 1.47406,-0.78138 5.12853,-1.96934 8.62639,-2.8042 5.72312,-1.36597 8.19302,-1.63663 16.22259,-1.77775 6.79844,-0.11948 7.47578,-0.17172 7.32306,-0.56485 -0.33491,-0.86216 -1.71343,-6.83809 -2.11033,-9.14838 -0.74438,-4.33302 -0.99801,-8.61111 -0.85583,-14.43586 0.16166,-6.62236 0.61752,-10.825403 1.1983,-11.048273 0.6609,-0.25361 6.96808,0.41795 10.40515,1.10789 5.99967,1.204343 11.20376,2.891693 17.36729,5.631113 1.49544,0.66465 2.75464,1.162 2.79821,1.10522 0.0436,-0.0568 0.41453,-1.11527 0.82434,-2.3522 3.31837,-10.015853 9.26792,-19.257933 17.09317,-26.552674 2.66816,-2.487273 7.97165,-6.535811 9.71214,-7.413982 l 1.24899,-0.630178 2.38125,1.445961 c 5.232368,3.177237 11.372278,8.594244 15.408158,13.594018 4.05884,5.028222 7.83364,11.889272 9.88635,17.969355 0.61412,1.81901 1.14128,3.34121 1.17146,3.38265 0.0302,0.0414 0.99332,-0.3528 2.14029,-0.87612 7.80727,-3.56214 18.40601,-6.170713 25.5527,-6.289073 l 3.25562,-0.0539 0.3661,2.248963 c 0.25105,1.54219 0.3716,4.78501 0.38359,10.31875 0.0153,7.06437 -0.0549,8.5313 -0.56339,11.77396 -0.47639,3.03789 -1.42719,7.28751 -2.31103,10.32914 -0.15401,0.53003 -0.0826,0.53767 4.04123,0.43272 9.53533,-0.24267 19.81491,1.54478 26.48038,4.60449 2.23421,1.02558 2.18945,0.62536 0.51548,4.60969 -5.62055,13.37786 -14.9492,24.69631 -27.19257,32.99273 -9.17385,6.21644 -21.29126,10.40881 -32.10392,11.1073 l -2.60289,0.16815 -8.30814,-8.30501 -8.30815,-8.305 2.04749,-1.98898 c 9.60902,-9.33444 15.15365,-24.50131 15.13915,-41.4119 -0.005,-5.77435 -0.85745,-14.94896 -1.38906,-14.94896 -0.32476,0 -3.18198,1.9553 -5.61718,3.84403 -3.11819,2.41846 -7.39675,6.9936 -9.5224,10.18246 -2.04368,3.06588 -5.106678,6.26651 -7.070328,7.38799 l -1.27509,0.72824 2.455,1.86965 c 1.350248,1.0283 3.128418,2.57566 3.951488,3.43856 1.87508,1.96582 3.6568,4.69493 3.65396,5.59686 -0.006,1.84102 -3.11071,5.48781 -8.531248,10.02014 -6.21656,5.19792 -7.1935,6.53383 -7.20231,9.84874 -0.005,1.75161 0.0979,2.17482 0.87464,3.60802 1.36517,2.51907 3.88588,5.48201 7.81817,9.18977 5.667698,5.34408 7.665988,8.43918 9.075888,14.05741 0.68281,2.7209 0.73085,3.28084 0.73776,8.59896 0.004,3.1287 -0.0782,5.8969 -0.18275,6.15156 -0.17786,0.43314 -1.13861,0.46303 -14.882808,0.46303 -8.08097,0 -14.69268,-0.0523 -14.69268,-0.11622 z m 0.39688,-24.2254 c 2.73344,-0.39146 5.95312,-1.10753 5.95312,-1.32399 0,-0.10398 -0.47535,-0.72908 -1.05633,-1.38911 -1.31484,-1.49375 -4.29188,-3.06609 -9.527,-5.03175 -8.68185,-3.25983 -15.67449,-7.73054 -22.23466,-14.21562 -6.15304,-6.08261 -10.49186,-12.43278 -13.91199,-20.36115 l -1.08936,-2.5253 -2.48252,-0.16883 c -8.25467,-0.56135 -15.70496,0.04 -22.45855,1.81266 -4.32445,1.13509 -4.49792,1.19198 -4.49792,1.4752 0,0.15209 0.60947,1.41753 1.35437,2.81208 8.39598,15.71833 22.40299,28.50287 37.93625,34.62535 6.6757,2.63124 12.27358,3.95299 19.71146,4.65419 1.87629,0.17688 10.25863,-0.0709 12.30313,-0.36373 z m 48.808228,-0.56581 c 9.44413,-1.5505 19.62984,-6.01733 27.89259,-12.23197 9.15102,-6.88275 16.38296,-15.91108 21.18018,-26.44132 l 0.94079,-2.0651 -1.40267,-0.62033 c -1.85118,-0.81868 -7.09797,-2.12632 -10.82365,-2.69756 -3.14578,-0.48232 -13.68714,-0.67399 -15.56994,-0.28311 -0.88484,0.1837 -0.99348,0.3258 -1.8166,2.37579 -4.63811,11.55135 -13.90876,23.00131 -24.09748,29.76225 -2.94925,1.95704 -6.73076,4.09895 -8.28363,4.692 -0.68275,0.26075 -1.24137,0.534 -1.24137,0.60723 0,0.22634 2.89776,3.52498 5.00623,5.6988 l 2.00523,2.06739 1.45521,-0.16115 c 0.80036,-0.0886 2.94016,-0.40495 4.75511,-0.70292 z m -12.88518,-11.64092 c 9.34353,-4.69628 17.68298,-12.10307 23.79161,-21.13082 1.56585,-2.31412 5.93354,-10.50769 5.7168,-10.72443 -0.32938,-0.32938 -8.92596,2.22774 -12.64709,3.76196 -2.36132,0.97357 -8.57059,4.08616 -9.27476,4.64926 -0.22617,0.18086 -0.80191,1.56777 -1.27943,3.08202 -2.1113,6.69519 -5.6738,13.48036 -9.59533,18.27533 -0.41391,0.5061 -0.75257,1.03064 -0.75257,1.16565 0,0.36956 1.31217,2.01521 1.60684,2.01521 0.14135,0 1.23662,-0.49238 2.43393,-1.09418 z m -38.413368,-0.42717 c -4.93782,-5.69238 -9.4389,-13.36321 -11.68272,-19.9099 -0.47382,-1.38245 -0.99107,-2.68136 -1.14944,-2.88648 -0.46879,-0.60717 -9.31597,-4.83695 -12.35148,-5.90516 -3.33582,-1.17389 -9.268,-2.90563 -9.42288,-2.75076 -0.0602,0.0602 0.56665,1.46153 1.39309,3.11399 2.79338,5.58534 6.0372,10.09847 10.68812,14.87041 6.43208,6.59944 13.30215,11.24838 20.38542,13.79468 1.38245,0.49696 2.67476,0.90951 2.8718,0.91678 0.19705,0.007 -0.13231,-0.55234 -0.73191,-1.24356 z m 4.505,-9.7449 c 1.14831,-2.33255 3.4538,-4.61164 8.44385,-8.34716 4.5917,-3.43731 6.95572,-5.78407 7.4337,-7.37942 0.66543,-2.22101 -0.77237,-4.48029 -4.97764,-7.82158 -3.811797,-3.02866 -6.81497,-6.2074 -9.21043,-9.74887 -2.42655,-3.58744 -5.58694,-7.06548 -8.69478,-9.5687 -2.2698,-1.82821 -7.27529,-5.27285 -7.41463,-5.10254 -0.0451,0.0551 -0.27699,1.35031 -0.51538,2.87827 -3.01297,19.3116 1.12393,36.42839 11.76497,48.67857 l 1.94941,2.2442 0.18681,-2.05582 c 0.13747,-1.51283 0.4106,-2.51041 1.03412,-3.77695 z m 44.022808,-19.32937 c 4.5939,-2.39083 11.06397,-4.65388 17.15801,-6.00141 2.71224,-0.59974 4.00449,-1.00394 4.17314,-1.3053 0.8326,-1.48777 2.66067,-10.22246 3.13436,-14.97622 0.29145,-2.9248 0.31557,-11.1302 0.0417,-14.19332 l -0.16557,-1.85208 -1.98438,0.0704 c -5.5362,0.19642 -15.4196,2.86048 -21.91698,5.9077 -2.63996,1.23812 -2.72944,1.30802 -2.58297,2.01785 0.47453,2.29968 0.94493,5.65714 1.22806,8.76507 0.57336,6.29395 0.0188,18.90151 -0.97207,22.09788 -0.17336,0.55925 -0.24736,0.58006 1.88667,-0.53057 z m -62.674688,0.23468 c -1.32994,-4.51477 -1.55275,-17.87962 -0.42014,-25.20156 0.30389,-1.96453 0.61944,-4.00956 0.70121,-4.54451 l 0.14868,-0.97264 -1.82723,-0.92018 c -6.60253,-3.32498 -16.39627,-6.38464 -22.20822,-6.93807 -1.68052,-0.16002 -1.89942,-0.12691 -2.07876,0.31442 -0.37465,0.92194 -0.49242,11.29217 -0.16823,14.81324 0.38953,4.23073 1.58428,10.23798 2.72859,13.71949 l 0.86755,2.63945 2.24896,0.44667 c 5.94118,1.18 14.72773,4.22121 18.56504,6.42576 1.37528,0.7901 1.62208,0.82739 1.44255,0.21793 z M 94.747222,90.2396 c 1.45271,-0.96224 4.91437,-4.53508 5.934168,-6.12477 3.48284,-5.42916 10.12605,-11.74351 15.9429,-15.1537 1.1791,-0.69126 2.14381,-1.43288 2.14381,-1.64806 0,-0.63508 -1.18403,-3.97405 -2.51742,-7.0991 -1.51028,-3.539653 -3.73264,-7.448523 -6.28626,-11.056763 -3.23781,-4.57502 -10.846218,-11.863861 -15.077918,-14.444616 l -0.99515,-0.606902 -1.13988,0.668015 c -3.434107,2.012522 -9.56875,7.563541 -12.91907,11.690003 -2.60591,3.2096 -5.51478,7.80513 -7.3638,11.63359 -1.99023,4.120843 -3.89404,9.316723 -3.64833,9.957043 0.0879,0.2291 1.12367,0.9816 2.30167,1.67222 5.86094,3.43603 11.77728,8.81134 15.08361,13.70426 1.05696,1.56417 2.475623,3.45998 3.152573,4.21291 1.221557,1.35866 3.613427,3.39419 3.988377,3.39419 0.10751,0 0.73783,-0.35924 1.40072,-0.79832 z m -0.7904,-15.34237 c -1.42688,-0.86997 -1.79337,-2.62904 -0.86496,-4.15166 1.02768,-1.68545 4.02166,-1.78213 5.28913,-0.1708 0.65902,0.8378 0.72604,2.6221 0.13043,3.47246 -0.96536,1.37825 -3.05008,1.76731 -4.5546,0.85 z m -1.11788,-13.02754 c -2.17129,-1.16183 -2.93824,-3.578683 -1.87711,-5.915233 0.69126,-1.52211 1.8962,-2.3073 3.71189,-2.41882 5.867198,-0.36035 6.495878,8.164623 0.65079,8.824863 -1.04617,0.11817 -1.52368,0.0239 -2.48557,-0.49081 z m 0.71001,-38.829685 c -0.0774,-0.218281 -0.28501,-0.873125 -0.46145,-1.455208 -1.23108,-4.061369 -4.427807,-7.514453 -8.24512,-8.906314 l -1.60772,-0.586207 1.2995,-0.441716 c 4.247413,-1.443736 7.19619,-4.4483212 8.5754,-8.7376592 l 0.62579,-1.94621098 0.30299,1.18092898 c 0.97548,3.802056 3.87694,7.239673 7.579228,8.9797692 1.21087,0.569116 1.98303,1.041493 1.71592,1.049728 -1.10066,0.03393 -4.054018,1.789549 -5.593178,3.324842 -1.72415,1.71982 -2.87442,3.738051 -3.59429,6.306462 -0.25103,0.895653 -0.51972,1.449866 -0.59707,1.231585 z"
       id="path1" /></g></svg>
